<?xml version="1.0" encoding="utf-8"?>
<!-- Generator: Adobe Illustrator 24.1.2, SVG Export Plug-In . SVG Version: 6.00 Build 0)  -->
<!DOCTYPE svg PUBLIC "-//W3C//DTD SVG 1.1//EN" "http://www.w3.org/Graphics/SVG/1.1/DTD/svg11.dtd" [
	<!ENTITY ns_extend "http://ns.adobe.com/Extensibility/1.0/">
	<!ENTITY ns_ai "http://ns.adobe.com/AdobeIllustrator/10.0/">
	<!ENTITY ns_graphs "http://ns.adobe.com/Graphs/1.0/">
	<!ENTITY ns_vars "http://ns.adobe.com/Variables/1.0/">
	<!ENTITY ns_imrep "http://ns.adobe.com/ImageReplacement/1.0/">
	<!ENTITY ns_sfw "http://ns.adobe.com/SaveForWeb/1.0/">
	<!ENTITY ns_custom "http://ns.adobe.com/GenericCustomNamespace/1.0/">
	<!ENTITY ns_adobe_xpath "http://ns.adobe.com/XPath/1.0/">
]>
<svg version="1.1" id="Layer_1" xmlns:x="&ns_extend;" xmlns:i="&ns_ai;" xmlns:graph="&ns_graphs;"
	 xmlns="http://www.w3.org/2000/svg" xmlns:xlink="http://www.w3.org/1999/xlink" x="0px" y="0px" viewBox="0 0 50 50"
	 style="enable-background:new 0 0 50 50;" xml:space="preserve">
<style type="text/css">
	.st0{fill:#FFFFFF;}
	.st1{fill:url(#SVGID_1_);}
	.st2{fill:url(#SVGID_2_);}
	.st3{fill:url(#SVGID_3_);}
	.st4{fill:url(#SVGID_4_);}
</style>
<metadata>
	<sfw  xmlns="&ns_sfw;">
		<slices></slices>
		<sliceSourceBounds  bottomLeftOrigin="true" height="47.4209" width="47.4219" x="231.9958" y="-279.5919"></sliceSourceBounds>
	</sfw>
</metadata>
<g>
	<path class="st0" d="M48.4176,24.8825c0,13.094-10.6155,23.7094-23.7115,23.7094c-13.0949,0-23.7104-10.6154-23.7104-23.7094
		c0-13.096,10.6155-23.7115,23.7104-23.7115C37.8022,1.171,48.4176,11.7865,48.4176,24.8825z"/>
	<g>
		<g>
			<linearGradient id="SVGID_1_" gradientUnits="userSpaceOnUse" x1="24.7059" y1="35.3681" x2="24.7059" y2="15.214">
				<stop  offset="0" style="stop-color:#00D3D5"/>
				<stop  offset="1" style="stop-color:#8778DC"/>
			</linearGradient>
			<path class="st1" d="M24.7063,2.4248c-12.3832,0-22.4575,10.0744-22.4575,22.4575S12.3231,47.34,24.7063,47.34
				c12.3824,0,22.4567-10.0745,22.4567-22.4576S37.0886,2.4248,24.7063,2.4248z M24.7063,42.5788
				c-9.7577,0-17.6964-7.9387-17.6964-17.6964S14.9486,7.1859,24.7063,7.1859c9.7569,0,17.6956,7.9387,17.6956,17.6964
				S34.4631,42.5788,24.7063,42.5788z"/>
		</g>
		<g>
			<g>
				<linearGradient id="SVGID_2_" gradientUnits="userSpaceOnUse" x1="24.6842" y1="35.3641" x2="24.6842" y2="15.2141">
					<stop  offset="0" style="stop-color:#00D3D5"/>
					<stop  offset="1" style="stop-color:#8778DC"/>
				</linearGradient>
				<path class="st2" d="M24.8967,18.2815h0.0017l0,0l0,0c1.7446,0.0018,3.3836,0.6819,4.6158,1.9159
					c0.6266,0.6248,1.1076,1.3569,1.4321,2.1512l2.9768-2.9785c0.2769-0.2786,0.4837-0.5555,0.6274-0.8324
					c0.2268-0.386,0.3583-0.8342,0.3583-1.3137c0-1.4399-1.1674-2.6064-2.6064-2.6064l-17.8426,0.0174v5.2492l6.163-0.0035
					C21.7693,18.8872,23.2637,18.2815,24.8967,18.2815z"/>
				<linearGradient id="SVGID_3_" gradientUnits="userSpaceOnUse" x1="24.8954" y1="35.3654" x2="24.8954" y2="15.2143">
					<stop  offset="0" style="stop-color:#00D3D5"/>
					<stop  offset="1" style="stop-color:#8778DC"/>
				</linearGradient>
				<path class="st3" d="M24.8984,21.3448h-0.0017c-1.9142,0-3.4666,1.5525-3.4684,3.4649c0,1.9159,1.5507,3.4683,3.4649,3.4683
					c0.0017,0,0.0017,0,0.0017,0c1.9142,0,3.4675-1.5507,3.4675-3.4648C28.3624,22.8989,26.8108,21.3448,24.8984,21.3448z"/>
				<linearGradient id="SVGID_4_" gradientUnits="userSpaceOnUse" x1="24.7007" y1="35.3679" x2="24.7007" y2="15.2124">
					<stop  offset="0" style="stop-color:#00D3D5"/>
					<stop  offset="1" style="stop-color:#8778DC"/>
				</linearGradient>
				<path class="st4" d="M24.8923,31.343c-2.7942-0.0017-5.1826-1.7688-6.112-4.2436l-3.2909,3.2952
					c-0.2752,0.2769-0.482,0.5538-0.6274,0.8307c-0.225,0.3877-0.3574,0.836-0.3574,1.3154c0,1.4382,1.1665,2.6064,2.6055,2.6064
					l17.7803-0.0191l0.006-5.2475l-5.8938,0.0018C27.8804,30.7944,26.4491,31.343,24.8923,31.343z"/>
			</g>
		</g>
	</g>
</g>
</svg>
